<?xml version="1.0" standalone="no"?>
<!DOCTYPE svg PUBLIC "-//W3C//DTD SVG 20010904//EN"
 "http://www.w3.org/TR/2001/REC-SVG-20010904/DTD/svg10.dtd">
<svg version="1.0" xmlns="http://www.w3.org/2000/svg"
 width="700.000000pt" height="700.000000pt" viewBox="0 0 700.000000 700.000000"
 preserveAspectRatio="xMidYMid meet">
<metadata>
Created by potrace 1.14, written by Peter Selinger 2001-2017
</metadata>
<g transform="translate(0.000000,700.000000) scale(0.100000,-0.100000)"
fill="#000000" stroke="none">
<path d="M1609 6136 c-2 -2 -53 -7 -114 -10 -109 -7 -124 -9 -220 -21 -27 -4
-66 -9 -85 -11 -19 -2 -57 -9 -85 -14 -27 -6 -75 -16 -105 -22 -148 -29 -300
-78 -415 -134 -88 -42 -185 -116 -207 -158 -92 -171 98 -330 527 -441 103 -26
283 -59 390 -70 33 -4 71 -9 85 -11 172 -28 1029 -25 1201 4 57 9 177 9 259
-1 190 -23 599 -31 785 -14 80 7 119 12 270 33 65 9 186 34 244 50 39 11 73
14 120 9 36 -4 80 -9 96 -10 17 -2 79 -6 138 -9 134 -7 165 -22 267 -125 76
-77 130 -162 154 -244 l12 -42 146 -3 146 -3 -4 68 c-5 85 -36 198 -76 281
-16 35 -28 65 -26 67 2 2 37 7 78 10 41 3 89 8 105 10 99 12 140 17 159 21 97
19 126 21 166 12 139 -31 233 -81 326 -173 77 -77 116 -136 150 -229 l22 -61
143 0 144 0 -1 35 c-4 104 -26 192 -74 297 -48 104 -89 163 -166 239 -136 136
-237 183 -514 244 -116 25 -126 27 -187 36 -26 3 -56 8 -67 10 -10 2 -44 6
-75 9 -31 4 -67 8 -80 10 -62 10 -289 19 -521 19 l-255 1 -71 36 c-62 31 -229
91 -289 103 -11 3 -51 11 -90 19 -102 22 -225 40 -370 54 -99 10 -563 10 -663
1 -58 -5 -90 -2 -150 14 -85 22 -79 20 -179 42 -75 16 -240 41 -333 51 -30 3
-71 8 -90 11 -42 5 -615 15 -621 10z"/>
<path d="M1135 4873 c-116 -46 -331 -134 -480 -194 l-270 -109 1 -77 c1 -68 8
-196 19 -328 2 -22 6 -89 10 -150 3 -60 8 -121 10 -135 2 -14 6 -74 10 -135 3
-60 8 -128 9 -150 2 -22 7 -89 10 -150 4 -60 9 -126 11 -145 2 -19 7 -84 10
-143 4 -59 8 -115 9 -125 2 -9 7 -73 11 -142 4 -69 8 -141 10 -160 2 -19 6
-84 10 -145 4 -60 8 -126 10 -145 2 -19 6 -84 10 -145 4 -60 9 -113 12 -117 2
-5 229 -8 505 -8 495 0 500 0 495 20 -3 11 -1 20 4 20 5 0 9 -9 9 -20 0 -20 7
-20 369 -20 286 0 370 -3 373 -12 4 -11 3 -360 -1 -364 -1 -1 -18 14 -38 33
-58 54 -116 76 -198 76 -82 0 -128 -18 -185 -69 -80 -72 -118 -171 -118 -306
0 -233 120 -381 309 -381 78 0 139 25 194 79 20 19 36 34 38 34 1 0 2 -21 2
-47 l0 -48 115 0 115 0 2 485 c2 575 0 520 16 520 14 0 14 3 3 115 -3 33 -8
105 -11 161 -3 56 -7 121 -10 145 -2 24 -6 85 -10 134 -3 50 -8 117 -10 150
-3 33 -7 101 -10 150 -3 50 -8 113 -10 140 -3 28 -7 86 -9 130 -5 75 -8 126
-21 300 -11 146 -14 183 -20 280 -4 55 -8 118 -10 140 -2 22 -6 85 -10 140 -3
55 -8 120 -10 145 -2 25 -7 90 -10 145 -3 55 -8 123 -10 150 -2 28 -7 91 -10
140 -9 134 -16 219 -19 222 -1 2 -175 -67 -387 -153 -211 -85 -430 -174 -487
-196 l-102 -42 4 -35 c9 -64 10 -130 3 -137 -4 -4 -7 22 -8 57 0 35 -2 71 -4
79 -1 8 -5 58 -9 110 -3 52 -8 140 -12 195 -3 55 -9 105 -13 112 -4 8 -72 -15
-216 -74z m276 -575 c1 -38 0 -70 -3 -73 -3 -3 -6 27 -7 67 -1 39 -5 77 -8 82
-4 8 -2 8 5 1 6 -5 12 -40 13 -77z m8 -140 c-1 -55 -5 -50 -11 15 -2 20 0 37
4 37 4 0 7 -24 7 -52z m8 -73 c0 -8 -4 -15 -9 -15 -10 0 -11 14 -1 23 9 10 10
9 10 -8z m0 -107 c-2 -18 -4 -6 -4 27 0 33 2 48 4 33 2 -15 2 -42 0 -60z m10
-125 c-2 -16 -4 -5 -4 22 0 28 2 40 4 28 2 -13 2 -35 0 -50z m13 -37 c0 -3 -4
-8 -10 -11 -5 -3 -10 -1 -10 4 0 6 5 11 10 11 6 0 10 -2 10 -4z m-1 -73 l-2
-48 -6 40 c-7 38 -5 55 5 55 2 0 3 -21 3 -47z m13 -155 c2 -37 0 -64 -4 -60
-3 4 -8 37 -10 74 -2 37 0 64 4 60 3 -4 8 -37 10 -74z m7 -135 c-1 -62 -6 -56
-11 15 -2 23 0 42 4 42 5 0 7 -26 7 -57z m7 -88 c6 -40 15 -259 11 -255 -3 3
-8 59 -12 125 -4 66 -9 128 -11 139 -2 10 0 16 3 12 4 -4 8 -13 9 -21z m26
-357 c2 -43 1 -78 -3 -78 -3 0 -7 35 -8 77 -1 42 -5 82 -8 87 -4 8 -2 8 5 1 5
-5 12 -45 14 -87z m13 -213 c4 -66 9 -123 12 -127 2 -5 -1 -8 -6 -8 -6 0 -11
21 -11 48 0 26 -3 85 -6 132 -4 47 -4 83 -1 80 3 -3 9 -59 12 -125z m15 -155
c0 -5 -2 -10 -4 -10 -3 0 -8 5 -11 10 -3 6 -1 10 4 10 6 0 11 -4 11 -10z m5
-140 c4 -63 5 -113 2 -110 -3 3 -8 57 -12 120 -4 63 -5 113 -2 110 3 -3 8 -57
12 -120z m15 -141 c0 -5 -4 -9 -8 -9 -5 0 -9 7 -9 15 0 8 4 12 9 9 4 -3 8 -9
8 -15z m1 -76 c2 -29 0 -55 -2 -58 -3 -3 -7 23 -8 57 -1 35 0 60 3 58 2 -3 6
-29 7 -57z m645 -551 c31 -3 83 -60 95 -105 14 -52 14 -152 0 -202 -35 -131
-197 -152 -265 -35 -15 25 -21 56 -22 119 -4 122 23 187 88 215 24 11 43 12
104 8z"/>
<path d="M3175 4864 c-116 -46 -219 -88 -230 -94 -11 -5 -130 -53 -265 -106
-222 -88 -277 -115 -266 -133 2 -3 7 -51 11 -106 3 -55 8 -120 10 -145 1 -25
6 -90 10 -145 3 -55 8 -118 10 -140 2 -22 6 -85 9 -140 4 -55 9 -122 11 -150
2 -27 7 -95 10 -150 4 -55 8 -118 10 -140 2 -22 6 -85 10 -140 4 -55 8 -116
10 -135 2 -19 7 -89 11 -155 3 -66 8 -131 10 -145 1 -14 5 -79 9 -145 3 -66 8
-131 10 -144 2 -13 7 -76 11 -140 4 -64 8 -123 10 -131 1 -8 3 -39 3 -67 l1
-53 506 0 505 0 -5 58 c-3 31 -8 98 -11 147 -3 50 -8 117 -10 150 -3 33 -7 92
-10 130 -3 39 -7 97 -10 130 -2 33 -7 103 -10 155 -4 52 -8 118 -10 145 -7 99
-15 221 -20 285 -5 66 -11 157 -20 285 -3 39 -7 104 -10 145 -8 98 -13 174
-20 285 -5 84 -11 169 -20 275 -2 25 -7 92 -10 150 -4 58 -9 123 -10 145 -2
22 -7 89 -10 150 -7 105 -11 144 -17 151 -2 1 -98 -36 -213 -82z"/>
<path d="M4857 4780 c-10 -4 -12 -149 -12 -652 l0 -648 -50 -1 c-27 0 -193 0
-367 0 l-318 -1 -1 -21 c-1 -29 -1 -1258 0 -1274 1 -10 123 -13 575 -13 l573
0 -4 1302 c-2 717 -6 1304 -8 1307 -6 6 -373 7 -388 1z"/>
<path d="M6080 4782 c-7 -3 -10 -230 -10 -653 l0 -649 -27 -1 c-16 0 -181 -1
-368 -2 l-340 -2 0 -652 0 -653 226 0 227 0 0 -72 c-1 -130 -14 -116 116 -117
l115 -1 0 62 c0 35 0 78 0 96 l1 32 233 0 232 0 -3 1302 c-1 716 -5 1304 -7
1306 -5 5 -381 8 -395 4z"/>
<path d="M3629 3806 c-1 -28 -1 -202 0 -248 l1 -37 202 2 203 2 -1 150 0 150
-202 1 c-199 1 -202 1 -203 -20z"/>
<path d="M3619 3461 c0 -9 -1 -303 -2 -654 l-2 -637 205 2 205 3 1 640 c0 352
-2 645 -4 652 -2 8 -61 11 -203 11 -178 0 -199 -2 -200 -17z"/>
<path d="M382 1648 l3 -483 123 -1 122 -1 0 484 0 483 -125 0 -125 0 2 -482z"/>
<path d="M4519 2065 c0 -16 -1 -62 -1 -102 l0 -72 -56 -3 -57 -3 -2 -60 c-3
-96 0 -102 49 -102 24 -1 48 -1 54 -2 8 -1 12 -50 12 -167 0 -91 3 -187 7
-213 10 -73 42 -122 98 -150 43 -21 63 -24 197 -26 l150 -3 0 83 0 83 -96 4
c-81 2 -98 6 -110 22 -19 27 -21 362 -1 368 6 2 60 3 120 3 l107 -1 0 83 0 83
-120 0 -119 0 -3 102 -3 102 -112 1 -113 0 -1 -30z"/>
<path d="M1277 1899 c-54 -13 -97 -36 -139 -77 -41 -39 -42 -38 -38 36 l2 32
-116 0 c-86 0 -116 -3 -117 -12 -1 -7 -2 -171 -3 -364 l-1 -351 115 1 115 1 1
188 c1 103 5 207 8 231 17 114 122 179 207 129 46 -27 49 -47 50 -329 l2 -221
116 1 116 1 -1 265 c-2 245 -3 269 -23 320 -26 66 -56 102 -108 129 -46 23
-131 32 -186 20z"/>
<path d="M3900 1903 c-157 -20 -233 -93 -233 -223 -1 -140 64 -194 278 -231
145 -25 172 -44 149 -104 -20 -52 -196 -58 -333 -11 -41 14 -77 23 -80 20 -3
-3 -6 -41 -6 -85 -1 -89 -9 -81 100 -102 87 -17 129 -21 231 -20 216 3 325 93
312 258 -7 76 -33 123 -88 154 -39 21 -137 47 -217 56 -104 12 -143 31 -143
70 0 64 126 85 280 45 46 -12 92 -26 102 -31 10 -5 18 -6 19 -2 4 30 3 156 -1
163 -15 24 -279 54 -370 43z"/>
<path d="M5527 1895 c-55 -14 -107 -48 -133 -87 -25 -37 -31 -35 -31 10 -1 78
9 72 -118 72 l-115 0 2 -362 3 -363 114 0 114 0 2 205 c2 223 7 250 60 303 15
15 42 31 59 36 40 11 138 6 165 -9 21 -11 21 -9 21 95 0 58 -3 105 -7 106 -42
6 -98 4 -136 -6z"/>
<path d="M6485 1895 c-107 -23 -171 -60 -226 -131 -86 -114 -92 -331 -12 -457
98 -155 323 -202 605 -125 l77 21 3 88 c2 49 -1 89 -5 89 -4 0 -26 -9 -48 -21
-60 -30 -183 -59 -253 -59 -100 0 -172 47 -195 128 l-10 32 62 0 c34 1 157 2
272 3 l210 2 0 55 c2 183 -97 327 -251 369 -65 17 -163 20 -229 6z m169 -160
c33 -16 59 -51 70 -97 8 -33 21 -30 -156 -32 -155 -1 -155 -1 -115 69 38 68
128 95 201 60z"/>
<path d="M2757 1883 c-3 -5 -4 -127 -3 -273 2 -263 2 -265 28 -320 32 -69 59
-97 117 -123 98 -43 224 -20 309 58 l41 36 3 -48 3 -48 113 -1 c96 -1 112 1
113 15 1 20 1 681 0 699 -1 9 -31 12 -116 12 l-115 0 0 -202 c0 -216 -7 -263
-46 -315 -51 -67 -159 -67 -198 -1 -18 29 -19 54 -20 275 l0 243 -112 0 c-62
0 -115 -3 -117 -7z"/>
<path d="M5789 1878 c-3 -35 -4 -694 -1 -704 2 -7 43 -10 115 -10 l112 1 2
363 2 362 -114 0 c-85 0 -115 -3 -116 -12z"/>
</g>
</svg>
